<svg width="86" height="164" viewBox="0 0 86 164" fill="none" xmlns="http://www.w3.org/2000/svg">
<path d="M58 0H56V88H58V0Z" fill="black"/>
<path d="M27.3233 97.3935C23.7958 92.1509 27.5752 84.6147 35.638 80.5736C43.7007 76.5324 53.1493 77.297 56.6768 82.5395C60.2042 87.7821 56.4248 95.3183 48.362 99.4687C40.2993 103.51 30.8507 102.636 27.3233 97.3935V97.3935ZM55.417 83.1949C54.0312 81.0104 46.9762 82.2119 39.6694 85.9254C39.5434 85.9254 39.5434 86.0346 39.4174 86.0346C39.2914 86.0346 39.1654 86.1438 39.1654 86.1438C31.9845 89.8573 27.3233 94.5537 28.835 96.6289C30.2208 98.8133 37.2757 97.6119 44.5826 93.8984C44.7086 93.8984 44.7086 93.7892 44.8346 93.7892L44.9606 93.68C52.1415 90.0757 56.8027 85.3793 55.417 83.1949V83.1949Z" fill="black"/>
</svg>
