<svg width="86" height="164" viewBox="0 0 86 164" fill="none" xmlns="http://www.w3.org/2000/svg">
<path d="M58 0C64.0995 18.1847 85.7828 21.2927 81.4248 45.4434C87.2557 53.528 88.6326 61.5868 78.8291 76C88.9412 49.3738 78.0588 46.0018 58 34.209V88H56V0H58ZM58.3447 16.5859C65.6117 28.9565 74.4233 36.5251 80.1182 43.7168C79.4262 36.8479 78.9017 26.9955 58.3447 16.5859Z" fill="black"/>
<path d="M27.3233 97.3935C23.7958 92.1509 27.5752 84.6147 35.638 80.5736C43.7007 76.5324 53.1493 77.297 56.6768 82.5395C60.2042 87.7821 56.4248 95.3183 48.362 99.4687C40.2993 103.51 30.8507 102.636 27.3233 97.3935V97.3935Z" fill="black"/>
</svg>
